# xmcd
#
# Track frame offsets:
#	150
#	25656
#	46482
#	67333
#	83402
#	95623
#	111710
#	135181
#	153411
#	184152
#	195956
#	223874
#	246216
#	258784
#	276171
#	295051
#
# Disc length: 4276
#
# Revision: 3
# Processed by: cddbd v1.5.1PL0 Copyright (c) Steve Scherf et al.
# Submitted via: EZCDDA 4.3.2
# Normalized: r2:TDELIM( - )
#
DISCID=e510b210
DTITLE=Buddy Guy - It's a jungle out there
DYEAR=1900
DGENRE=
TTITLE0=Buddy Guy - It's a jungle out there
TTITLE1=Buddy Guy - Key To The Highway
TTITLE2=Buddy Guy - Look What All You Got
TTITLE3=Buddy Guy - Messing With The Kid
TTITLE4=Buddy Guy - My Younger Days
TTITLE5=Buddy Guy - Shame, shame, shame
TTITLE6=Buddy Guy - She Got The Devil In Her
TTITLE7=Buddy Guy - Stay All Night
TTITLE8=Buddy Guy - Tramp
TTITLE9=Buddy Guy - Try To Quit You Baby
TTITLE10=Buddy Guy - What I'D Say (It'S All Right)
TTITLE11=Buddy Guy - Who's Been Foolin' You
TTITLE12=Buddy Guy - You Sure Can't Do
TTITLE13=Buddy Guy and Jimi Hendrix - Red House
TTITLE14=Buddy Guy and Junior Wells - Bad Bad Whiskey
TTITLE15=Buddy Guy and Junior Wells - Hoodoo Man Blues
EXTD=
EXTT0=
EXTT1=
EXTT2=
EXTT3=
EXTT4=
EXTT5=
EXTT6=
EXTT7=
EXTT8=
EXTT9=
EXTT10=
EXTT11=
EXTT12=
EXTT13=
EXTT14=
EXTT15=
PLAYORDER=
